<svg width="1000px" height="777px"
 viewBox="0.00 0.00 624.00 485.00" xmlns="http://www.w3.org/2000/svg" xmlns:xlink="http://www.w3.org/1999/xlink">
<g id="graph0" class="graph" transform="scale(1.0 1.0) rotate(0.0) translate(4.0 481.0)">
<polygon fill="white" stroke="transparent" points="-4,4 -4,-481 620,-481 620,4 -4,4"/>
<g id="clust2" class="cluster">
<title>cluster_ControllingDayMode</title>
<polygon fill="none" stroke="black" points="216,-8 216,-469 402,-469 402,-8 216,-8"/>
<text text-anchor="middle" x="277.99" y="-456" font-family="Arial" font-size="10.00">ControllingDayMode</text>
</g>
<g id="clust1" class="cluster">
<title>cluster_TrafficLight</title>
<polygon fill="none" stroke="black" points="8,-254 8,-469 208,-469 208,-254 8,-254"/>
<text text-anchor="middle" x="51.99" y="-456" font-family="Arial" font-size="10.00">TrafficLight</text>
</g>
<g id="clust3" class="cluster">
<title>cluster_ControllingNightMode</title>
<polygon fill="none" stroke="black" points="410,-254 410,-469 608,-469 608,-254 410,-254"/>
<text text-anchor="middle" x="477.99" y="-456" font-family="Arial" font-size="10.00">ControllingNightMode</text>
</g>
<!-- State_0470 -->
<g id="node1" class="node">
<title>State_0470</title>
<ellipse fill="black" stroke="black" cx="108" cy="-430" rx="11" ry="11"/>
</g>
<!-- State_0461 -->
<g id="node2" class="node">
<title>State_0461</title>
<path fill="lightskyblue" stroke="black" d="M179.5,-382C179.5,-382 36.5,-382 36.5,-382 30.5,-382 24.5,-376 24.5,-370 24.5,-370 24.5,-358 24.5,-358 24.5,-352 30.5,-346 36.5,-346 36.5,-346 179.5,-346 179.5,-346 185.5,-346 191.5,-352 191.5,-358 191.5,-358 191.5,-370 191.5,-370 191.5,-376 185.5,-382 179.5,-382"/>
<text text-anchor="start" x="32.91" y="-362.4" font-family="Arial" font-size="14.00">ControllingDayMode</text>
<text text-anchor="start" x="173.2" y="-353.6" font-family="Arial" font-size="6.00">o&#45;o</text>
</g>
<!-- State_0470&#45;&gt;State_0461 -->
<g id="edge1" class="edge">
<title>State_0470&#45;&gt;State_0461</title>
<path fill="none" stroke="black" d="M108,-419C108,-411.85 108,-401.85 108,-392.41"/>
<polygon fill="black" stroke="black" points="111.5,-392.15 108,-382.15 104.5,-392.15 111.5,-392.15"/>
</g>
<!-- State_0469 -->
<g id="node3" class="node">
<title>State_0469</title>
<path fill="lightskyblue" stroke="black" d="M187.5,-298C187.5,-298 28.5,-298 28.5,-298 22.5,-298 16.5,-292 16.5,-286 16.5,-286 16.5,-274 16.5,-274 16.5,-268 22.5,-262 28.5,-262 28.5,-262 187.5,-262 187.5,-262 193.5,-262 199.5,-268 199.5,-274 199.5,-274 199.5,-286 199.5,-286 199.5,-292 193.5,-298 187.5,-298"/>
<text text-anchor="start" x="24.51" y="-278.4" font-family="Arial" font-size="14.00">ControllingNightMode</text>
<text text-anchor="start" x="181.2" y="-269.6" font-family="Arial" font-size="6.00">o&#45;o</text>
</g>
<!-- State_0461&#45;&gt;State_0469 -->
<g id="edge2" class="edge">
<title>State_0461&#45;&gt;State_0469</title>
<path fill="none" stroke="black" d="M102.36,-345.61C101.21,-334.77 100.95,-320.6 101.6,-308.29"/>
<polygon fill="black" stroke="black" points="105.11,-308.33 102.4,-298.08 98.13,-307.78 105.11,-308.33"/>
</g>
<!-- State_0469&#45;&gt;State_0461 -->
<g id="edge3" class="edge">
<title>State_0469&#45;&gt;State_0461</title>
<path fill="none" stroke="black" d="M113.6,-298.08C114.78,-308.86 115.05,-323.01 114.42,-335.36"/>
<polygon fill="black" stroke="black" points="110.91,-335.37 113.64,-345.61 117.89,-335.91 110.91,-335.37"/>
</g>
<!-- State_0467 -->
<g id="node4" class="node">
<title>State_0467</title>
<ellipse fill="black" stroke="black" cx="332" cy="-430" rx="11" ry="11"/>
</g>
<!-- State_0462 -->
<g id="node5" class="node">
<title>State_0462</title>
<path fill="lightskyblue" stroke="black" d="M369.99,-382C369.99,-382 294.01,-382 294.01,-382 288.01,-382 282.01,-376 282.01,-370 282.01,-370 282.01,-358 282.01,-358 282.01,-352 288.01,-346 294.01,-346 294.01,-346 369.99,-346 369.99,-346 375.99,-346 381.99,-352 381.99,-358 381.99,-358 381.99,-370 381.99,-370 381.99,-376 375.99,-382 369.99,-382"/>
<text text-anchor="middle" x="332" y="-359.8" font-family="Arial" font-size="14.00">ShowingRed</text>
</g>
<!-- State_0467&#45;&gt;State_0462 -->
<g id="edge4" class="edge">
<title>State_0467&#45;&gt;State_0462</title>
<path fill="none" stroke="black" d="M332,-419C332,-411.85 332,-401.85 332,-392.41"/>
<polygon fill="black" stroke="black" points="335.5,-392.15 332,-382.15 328.5,-392.15 335.5,-392.15"/>
</g>
<!-- State_0463 -->
<g id="node6" class="node">
<title>State_0463</title>
<path fill="lightskyblue" stroke="black" d="M362.38,-298C362.38,-298 235.62,-298 235.62,-298 229.62,-298 223.62,-292 223.62,-286 223.62,-286 223.62,-274 223.62,-274 223.62,-268 229.62,-262 235.62,-262 235.62,-262 362.38,-262 362.38,-262 368.38,-262 374.38,-268 374.38,-274 374.38,-274 374.38,-286 374.38,-286 374.38,-292 368.38,-298 362.38,-298"/>
<text text-anchor="middle" x="299" y="-275.8" font-family="Arial" font-size="14.00">ShowingRedYellow</text>
</g>
<!-- State_0462&#45;&gt;State_0463 -->
<g id="edge5" class="edge">
<title>State_0462&#45;&gt;State_0463</title>
<path fill="none" stroke="black" d="M325,-345.61C320.55,-334.56 314.71,-320.03 309.68,-307.55"/>
<polygon fill="black" stroke="black" points="312.86,-306.05 305.88,-298.08 306.36,-308.67 312.86,-306.05"/>
<text text-anchor="middle" x="329" y="-319" font-family="Arial" font-size="10.00">Tick</text>
</g>
<!-- State_0465 -->
<g id="node7" class="node">
<title>State_0465</title>
<path fill="lightskyblue" stroke="black" d="M339.28,-214C339.28,-214 246.72,-214 246.72,-214 240.72,-214 234.72,-208 234.72,-202 234.72,-202 234.72,-190 234.72,-190 234.72,-184 240.72,-178 246.72,-178 246.72,-178 339.28,-178 339.28,-178 345.28,-178 351.28,-184 351.28,-190 351.28,-190 351.28,-202 351.28,-202 351.28,-208 345.28,-214 339.28,-214"/>
<text text-anchor="middle" x="293" y="-191.8" font-family="Arial" font-size="14.00">ShowingGreen</text>
</g>
<!-- State_0463&#45;&gt;State_0465 -->
<g id="edge6" class="edge">
<title>State_0463&#45;&gt;State_0465</title>
<path fill="none" stroke="black" d="M297.73,-261.61C296.93,-250.77 295.9,-236.6 295,-224.29"/>
<polygon fill="black" stroke="black" points="298.47,-223.8 294.25,-214.08 291.49,-224.31 298.47,-223.8"/>
<text text-anchor="middle" x="308" y="-235" font-family="Arial" font-size="10.00">Tick</text>
</g>
<!-- State_0464 -->
<g id="node8" class="node">
<title>State_0464</title>
<path fill="lightskyblue" stroke="black" d="M371.68,-130C371.68,-130 270.32,-130 270.32,-130 264.32,-130 258.32,-124 258.32,-118 258.32,-118 258.32,-106 258.32,-106 258.32,-100 264.32,-94 270.32,-94 270.32,-94 371.68,-94 371.68,-94 377.68,-94 383.68,-100 383.68,-106 383.68,-106 383.68,-118 383.68,-118 383.68,-124 377.68,-130 371.68,-130"/>
<text text-anchor="middle" x="321" y="-107.8" font-family="Arial" font-size="14.00">ShowingYellow</text>
</g>
<!-- State_0465&#45;&gt;State_0464 -->
<g id="edge7" class="edge">
<title>State_0465&#45;&gt;State_0464</title>
<path fill="none" stroke="black" d="M298.94,-177.61C302.71,-166.56 307.67,-152.03 311.93,-139.55"/>
<polygon fill="black" stroke="black" points="315.25,-140.68 315.17,-130.08 308.62,-138.42 315.25,-140.68"/>
<text text-anchor="middle" x="320" y="-151" font-family="Arial" font-size="10.00">Tick</text>
</g>
<!-- State_0464&#45;&gt;State_0462 -->
<g id="edge8" class="edge">
<title>State_0464&#45;&gt;State_0462</title>
<path fill="none" stroke="black" d="M332.81,-130.03C341.26,-142.78 352.43,-160.92 360,-178 374.3,-210.26 377.83,-219.09 383,-254 385.86,-273.34 389.39,-279.52 383,-298 377.84,-312.95 367.66,-327.07 357.75,-338.32"/>
<polygon fill="black" stroke="black" points="354.89,-336.25 350.66,-345.96 360.02,-341.01 354.89,-336.25"/>
<text text-anchor="middle" x="393" y="-235" font-family="Arial" font-size="10.00">Tick</text>
</g>
<!-- State_0468 -->
<g id="node9" class="node">
<title>State_0468</title>
<ellipse fill="black" stroke="black" cx="321" cy="-31" rx="11" ry="11"/>
<ellipse fill="none" stroke="black" cx="321" cy="-31" rx="15" ry="15"/>
</g>
<!-- State_0464&#45;&gt;State_0468 -->
<g id="edge9" class="edge">
<title>State_0464&#45;&gt;State_0468</title>
<path fill="none" stroke="black" d="M321,-93.86C321,-82.95 321,-68.65 321,-56.54"/>
<polygon fill="black" stroke="black" points="324.5,-56.2 321,-46.2 317.5,-56.2 324.5,-56.2"/>
<text text-anchor="middle" x="333" y="-67" font-family="Arial" font-size="10.00">Tick</text>
</g>
<!-- State_0459 -->
<g id="node10" class="node">
<title>State_0459</title>
<ellipse fill="black" stroke="black" cx="529" cy="-430" rx="11" ry="11"/>
</g>
<!-- State_0457 -->
<g id="node11" class="node">
<title>State_0457</title>
<path fill="lightskyblue" stroke="black" d="M579.68,-382C579.68,-382 478.32,-382 478.32,-382 472.32,-382 466.32,-376 466.32,-370 466.32,-370 466.32,-358 466.32,-358 466.32,-352 472.32,-346 478.32,-346 478.32,-346 579.68,-346 579.68,-346 585.68,-346 591.68,-352 591.68,-358 591.68,-358 591.68,-370 591.68,-370 591.68,-376 585.68,-382 579.68,-382"/>
<text text-anchor="middle" x="529" y="-359.8" font-family="Arial" font-size="14.00">ShowingYellow</text>
</g>
<!-- State_0459&#45;&gt;State_0457 -->
<g id="edge10" class="edge">
<title>State_0459&#45;&gt;State_0457</title>
<path fill="none" stroke="black" d="M529,-419C529,-411.85 529,-401.85 529,-392.41"/>
<polygon fill="black" stroke="black" points="532.5,-392.15 529,-382.15 525.5,-392.15 532.5,-392.15"/>
</g>
<!-- State_0456 -->
<g id="node12" class="node">
<title>State_0456</title>
<path fill="lightskyblue" stroke="black" d="M539.58,-298C539.58,-298 430.42,-298 430.42,-298 424.42,-298 418.42,-292 418.42,-286 418.42,-286 418.42,-274 418.42,-274 418.42,-268 424.42,-262 430.42,-262 430.42,-262 539.58,-262 539.58,-262 545.58,-262 551.58,-268 551.58,-274 551.58,-274 551.58,-286 551.58,-286 551.58,-292 545.58,-298 539.58,-298"/>
<text text-anchor="middle" x="485" y="-275.8" font-family="Arial" font-size="14.00">ShowingNothing</text>
</g>
<!-- State_0457&#45;&gt;State_0456 -->
<g id="edge11" class="edge">
<title>State_0457&#45;&gt;State_0456</title>
<path fill="none" stroke="black" d="M498.25,-345.94C492.11,-341 486.48,-335.01 483,-328 480.05,-322.05 479.18,-315.13 479.36,-308.46"/>
<polygon fill="black" stroke="black" points="482.86,-308.66 480.37,-298.36 475.89,-307.97 482.86,-308.66"/>
<text text-anchor="middle" x="495" y="-319" font-family="Arial" font-size="10.00">Tick</text>
</g>
<!-- State_0460 -->
<g id="node13" class="node">
<title>State_0460</title>
<ellipse fill="black" stroke="black" cx="585" cy="-280" rx="11" ry="11"/>
<ellipse fill="none" stroke="black" cx="585" cy="-280" rx="15" ry="15"/>
</g>
<!-- State_0457&#45;&gt;State_0460 -->
<g id="edge12" class="edge">
<title>State_0457&#45;&gt;State_0460</title>
<path fill="none" stroke="black" d="M540.88,-345.61C549.64,-332.78 561.6,-315.26 570.86,-301.7"/>
<polygon fill="black" stroke="black" points="574.02,-303.29 576.77,-293.06 568.24,-299.34 574.02,-303.29"/>
<text text-anchor="middle" x="572" y="-319" font-family="Arial" font-size="10.00">Tick</text>
</g>
<!-- State_0456&#45;&gt;State_0457 -->
<g id="edge13" class="edge">
<title>State_0456&#45;&gt;State_0457</title>
<path fill="none" stroke="black" d="M496.4,-298.19C499.94,-303.79 503.77,-310.08 507,-316 510.54,-322.48 514.06,-329.63 517.23,-336.36"/>
<polygon fill="black" stroke="black" points="514.2,-338.15 521.55,-345.78 520.56,-335.23 514.2,-338.15"/>
<text text-anchor="middle" x="524" y="-319" font-family="Arial" font-size="10.00">Tick</text>
</g>
</g>
</svg>
