<svg width="500px" height="870px"
 viewBox="0.00 0.00 203.78 355.00" xmlns="http://www.w3.org/2000/svg" xmlns:xlink="http://www.w3.org/1999/xlink">
<g id="graph0" class="graph" transform="scale(1.0 1.0) rotate(0.0) translate(4.0 351.0)">
<title>simple traffic light</title>
<polygon fill="white" stroke="transparent" points="-4,4 -4,-351 199.78,-351 199.78,4 -4,4"/>
<!-- State_0475 -->
<g id="node1" class="node">
<title>State_0475</title>
<ellipse fill="black" stroke="black" cx="126.19" cy="-336" rx="11" ry="11"/>
</g>
<!-- State_0471 -->
<g id="node2" class="node">
<title>State_0471</title>
<path fill="lightskyblue" stroke="black" d="M164.17,-288C164.17,-288 88.2,-288 88.2,-288 82.2,-288 76.2,-282 76.2,-276 76.2,-276 76.2,-264 76.2,-264 76.2,-258 82.2,-252 88.2,-252 88.2,-252 164.17,-252 164.17,-252 170.17,-252 176.17,-258 176.17,-264 176.17,-264 176.17,-276 176.17,-276 176.17,-282 170.17,-288 164.17,-288"/>
<text text-anchor="middle" x="126.19" y="-265.8" font-family="Arial" font-size="14.00">ShowingRed</text>
</g>
<!-- State_0475&#45;&gt;State_0471 -->
<g id="edge1" class="edge">
<title>State_0475&#45;&gt;State_0471</title>
<path fill="none" stroke="black" d="M126.19,-325C126.19,-317.85 126.19,-307.85 126.19,-298.41"/>
<polygon fill="black" stroke="black" points="129.69,-298.15 126.19,-288.15 122.69,-298.15 129.69,-298.15"/>
</g>
<!-- State_0472 -->
<g id="node3" class="node">
<title>State_0472</title>
<path fill="lightskyblue" stroke="black" d="M138.57,-204C138.57,-204 11.81,-204 11.81,-204 5.81,-204 -0.19,-198 -0.19,-192 -0.19,-192 -0.19,-180 -0.19,-180 -0.19,-174 5.81,-168 11.81,-168 11.81,-168 138.57,-168 138.57,-168 144.57,-168 150.57,-174 150.57,-180 150.57,-180 150.57,-192 150.57,-192 150.57,-198 144.57,-204 138.57,-204"/>
<text text-anchor="middle" x="75.19" y="-181.8" font-family="Arial" font-size="14.00">ShowingRedYellow</text>
</g>
<!-- State_0471&#45;&gt;State_0472 -->
<g id="edge2" class="edge">
<title>State_0471&#45;&gt;State_0472</title>
<path fill="none" stroke="black" d="M115.37,-251.61C108.36,-240.34 99.1,-225.45 91.24,-212.81"/>
<polygon fill="black" stroke="black" points="94.07,-210.73 85.81,-204.08 88.12,-214.42 94.07,-210.73"/>
<text text-anchor="middle" x="116.19" y="-225" font-family="Arial" font-size="10.00">Tick</text>
</g>
<!-- State_0474 -->
<g id="node4" class="node">
<title>State_0474</title>
<path fill="lightskyblue" stroke="black" d="M134.47,-120C134.47,-120 41.91,-120 41.91,-120 35.91,-120 29.91,-114 29.91,-108 29.91,-108 29.91,-96 29.91,-96 29.91,-90 35.91,-84 41.91,-84 41.91,-84 134.47,-84 134.47,-84 140.47,-84 146.47,-90 146.47,-96 146.47,-96 146.47,-108 146.47,-108 146.47,-114 140.47,-120 134.47,-120"/>
<text text-anchor="middle" x="88.19" y="-97.8" font-family="Arial" font-size="14.00">ShowingGreen</text>
</g>
<!-- State_0472&#45;&gt;State_0474 -->
<g id="edge3" class="edge">
<title>State_0472&#45;&gt;State_0474</title>
<path fill="none" stroke="black" d="M77.95,-167.61C79.66,-156.77 81.91,-142.6 83.86,-130.29"/>
<polygon fill="black" stroke="black" points="87.37,-130.51 85.48,-120.08 80.46,-129.41 87.37,-130.51"/>
<text text-anchor="middle" x="95.19" y="-141" font-family="Arial" font-size="10.00">Tick</text>
</g>
<!-- State_0473 -->
<g id="node5" class="node">
<title>State_0473</title>
<path fill="lightskyblue" stroke="black" d="M183.87,-36C183.87,-36 82.51,-36 82.51,-36 76.51,-36 70.51,-30 70.51,-24 70.51,-24 70.51,-12 70.51,-12 70.51,-6 76.51,0 82.51,0 82.51,0 183.87,0 183.87,0 189.87,0 195.87,-6 195.87,-12 195.87,-12 195.87,-24 195.87,-24 195.87,-30 189.87,-36 183.87,-36"/>
<text text-anchor="middle" x="133.19" y="-13.8" font-family="Arial" font-size="14.00">ShowingYellow</text>
</g>
<!-- State_0474&#45;&gt;State_0473 -->
<g id="edge4" class="edge">
<title>State_0474&#45;&gt;State_0473</title>
<path fill="none" stroke="black" d="M97.73,-83.61C103.86,-72.45 111.93,-57.74 118.82,-45.18"/>
<polygon fill="black" stroke="black" points="122.07,-46.53 123.81,-36.08 115.93,-43.17 122.07,-46.53"/>
<text text-anchor="middle" x="126.19" y="-57" font-family="Arial" font-size="10.00">Tick</text>
</g>
<!-- State_0473&#45;&gt;State_0471 -->
<g id="edge5" class="edge">
<title>State_0473&#45;&gt;State_0471</title>
<path fill="none" stroke="black" d="M140.41,-36.03C145.53,-48.94 152.02,-67.26 155.19,-84 160.05,-109.68 163.88,-184.41 159.19,-204 155.91,-217.69 149.25,-231.76 142.76,-243.29"/>
<polygon fill="black" stroke="black" points="139.73,-241.55 137.67,-251.94 145.76,-245.1 139.73,-241.55"/>
<text text-anchor="middle" x="173.19" y="-141" font-family="Arial" font-size="10.00">Tick</text>
</g>
</g>
</svg>
